<svg width="25" height="25" viewBox="0 0 25 25" fill="none" xmlns="http://www.w3.org/2000/svg"><path d="M22.982 12.7421C22.982 11.8603 22.909 11.2168 22.751 10.5496H12.4766V14.5294H18.5074C18.3859 15.5185 17.7293 17.008 16.2702 18.0088L16.2497 18.1421L19.4983 20.6084L19.7234 20.6304C21.7904 18.7596 22.982 16.007 22.982 12.7421Z" fill="#4285F4"></path><path d="M12.4751 23.2281C15.4297 23.2281 17.9101 22.2748 19.7219 20.6304L16.2687 18.0088C15.3446 18.6404 14.1044 19.0813 12.4751 19.0813C9.58127 19.0813 7.12517 17.2105 6.24964 14.6248L6.1213 14.6354L2.74339 17.1974L2.69922 17.3177C4.49874 20.821 8.19509 23.2281 12.4751 23.2281Z" fill="#34A853"></path><path d="M6.25087 14.6251C6.01985 13.9578 5.88616 13.2428 5.88616 12.504C5.88616 11.7652 6.01985 11.0503 6.23872 10.383L6.2326 10.2409L2.81235 7.63782L2.70044 7.68998C1.95877 9.14374 1.5332 10.7762 1.5332 12.504C1.5332 14.2318 1.95877 15.8643 2.70044 17.318L6.25087 14.6251Z" fill="#FBBC05"></path><path d="M12.4752 5.92624C14.53 5.92624 15.9161 6.7961 16.7065 7.52302L19.7949 4.56786C17.8981 2.84006 15.4298 1.77954 12.4752 1.77954C8.19512 1.77954 4.49875 4.18653 2.69922 7.68978L6.2375 10.3828C7.12519 7.79706 9.58131 5.92624 12.4752 5.92624Z" fill="#EB4335"></path></svg>